<?xml version="1.0" encoding="utf-8"?>
<!-- Generator: Adobe Illustrator 21.0.0, SVG Export Plug-In . SVG Version: 6.00 Build 0)  -->
<svg version="1.1" id="Layer_1" xmlns:sketch="http://www.bohemiancoding.com/sketch/ns"
	 xmlns="http://www.w3.org/2000/svg" xmlns:xlink="http://www.w3.org/1999/xlink" x="0px" y="0px" viewBox="0 0 48 48"
	 style="enable-background:new 0 0 48 48;" xml:space="preserve">
<style type="text/css">
	.st0{fill:#FFFFFF;}
	.st1{fill:none;stroke:#D62121;stroke-miterlimit:10;}
	.st2{fill:none;stroke:#D62121;stroke-linecap:round;stroke-linejoin:round;stroke-miterlimit:10;}
	.st3{fill:#D62121;}
	.st4{fill:none;stroke:#D62121;stroke-linecap:round;stroke-linejoin:round;}
	.st5{fill:none;stroke:#D62121;stroke-linecap:round;stroke-linejoin:round;stroke-dasharray:3.2981,3.2981;}
	.st6{fill:#5D0E51;}
</style>
<path class="st0" d="M24,0C10.8,0,0,10.8,0,24c0,13.2,10.8,24,24,24s24-10.8,24-24C48,10.8,37.2,0,24,0z M24,46.9
	c-12.7,0-23-10.3-23-23c0-12.7,10.3-23,23-23s23,10.3,23,23C47,36.6,36.7,46.9,24,46.9z"/>
<g>
	<path class="st0" d="M25.2,28.1c-4.1,0-7.5-3.4-7.5-7.5s3.4-7.5,7.5-7.5s7.5,3.4,7.5,7.5S29.4,28.1,25.2,28.1z M25.2,14.2
		c-3.6,0-6.5,2.9-6.5,6.5s2.9,6.5,6.5,6.5s6.5-2.9,6.5-6.5S28.8,14.2,25.2,14.2z"/>
	<path class="st0" d="M34.4,20.2c-0.2,0-0.3-0.1-0.4-0.2c-0.1-0.2-0.1-0.5,0.2-0.7c1.6-1,2.6-2.7,2.6-4.6c0-3-2.4-5.5-5.5-5.5
		c-1.9,0-3.6,0.9-4.6,2.5c-0.2,0.2-0.5,0.3-0.7,0.1c-0.2-0.1-0.3-0.5-0.1-0.7c1.2-1.9,3.2-3,5.4-3c3.6,0,6.5,2.9,6.5,6.5
		c0,2.2-1.1,4.3-3,5.5C34.6,20.2,34.5,20.2,34.4,20.2z"/>
	<path class="st0" d="M25.4,17.8c-0.3,0-0.5-0.2-0.5-0.5v-1.4c0-0.3,0.2-0.5,0.5-0.5s0.5,0.2,0.5,0.5v1.4
		C25.9,17.6,25.7,17.8,25.4,17.8z"/>
	<path class="st0" d="M25.4,25.9c-0.3,0-0.5-0.2-0.5-0.5V24c0-0.3,0.2-0.5,0.5-0.5s0.5,0.2,0.5,0.5v1.4
		C25.9,25.7,25.7,25.9,25.4,25.9z"/>
	<path class="st0" d="M25.4,24.5c-1.6,0-2.3-1.2-2.5-1.9C22.9,22.3,23,22,23.3,22c0.3-0.1,0.5,0.1,0.6,0.4c0,0.1,0.4,1.1,1.5,1.1
		c0.6,0,1.1-0.4,1.1-0.8c0-0.3-0.5-0.7-0.9-1.1c-0.2-0.2-0.4-0.3-0.5-0.5c-0.1-0.1-0.3-0.3-0.4-0.4c-0.7-0.7-1.4-1.3-1.4-2
		c0-0.9,0.7-1.8,2.2-1.8c1.3,0,1.9,1,2.1,1.5c0.1,0.3-0.1,0.5-0.3,0.6c-0.3,0.1-0.5-0.1-0.6-0.3c0-0.1-0.3-0.8-1.1-0.8
		c-0.9,0-1.2,0.5-1.2,0.8c0,0.2,0.7,0.9,1.1,1.3c0.2,0.1,0.3,0.3,0.4,0.4c0.2,0.2,0.3,0.3,0.5,0.5c0.6,0.5,1.2,1.1,1.2,1.9
		C27.5,23.6,26.5,24.5,25.4,24.5z"/>
	<path class="st0" d="M25,35c-0.6,0-1.3,0-2,0c-0.3,0-0.6,0-0.7,0c-0.3,0-0.5-0.2-0.5-0.5S22,34,22.3,34c0.2,0,0.4,0,0.8,0
		c1.7,0.1,6.1,0.2,7.2-0.9c0.1-0.1,0.2-0.3,0.2-0.4c0-0.3-0.1-0.6-0.3-0.8c-1.2-1.2-5.1-1.1-6.5-1.1l-0.5,0c-0.7,0-1.2-0.2-1.6-0.4
		c-0.5-0.2-1.2-0.5-2.7-0.5c-2.7,0-4.2,1.1-4.2,1.1c-0.1,0.1-0.9,0.6-3.1,0.6c-1.2,0-2.7,0-4,0c-0.9,0-1.6,0-2,0
		c-0.3,0-0.5-0.2-0.5-0.5s0.2-0.5,0.5-0.5c0.4,0,1.1,0,2,0c1.2,0,2.7,0,4,0c1.8,0,2.5-0.4,2.5-0.4c0,0,1.7-1.3,4.8-1.3
		c1.8,0,2.5,0.3,3.1,0.6c0.4,0.2,0.7,0.3,1.2,0.3l0.5,0c1.9,0,5.8-0.1,7.3,1.4c0.4,0.4,0.6,0.9,0.6,1.5c0,0.4-0.2,0.8-0.5,1.1
		C30,34.8,27.6,35,25,35z"/>
	<path class="st0" d="M28.2,38.9c-2,0-9.1-0.3-12.8-0.5c-3.5-0.2-6.1-0.4-6.1-0.4c-0.3,0-0.5-0.3-0.5-0.5c0-0.3,0.3-0.5,0.5-0.5
		c0,0,2.6,0.2,6.1,0.4c3.7,0.2,10.9,0.5,12.8,0.5c1.4,0,4.3-1.8,6.3-2.9c0.6-0.3,1.1-0.7,1.5-0.9c0.3-0.1,0.5-0.3,0.8-0.5
		c1.3-0.7,3.4-1.8,3.6-2.6c0-0.1,0-0.2,0-0.2c-0.1-0.1-0.9-0.7-6.9,2.6l-0.2,0.1c-0.1,0.1-0.3,0.1-0.4,0c0,0-1.2-0.3-2.3,0.5
		c-0.2,0.2-0.5,0.1-0.7-0.1c-0.2-0.2-0.1-0.5,0.1-0.7c1.2-0.8,2.5-0.8,2.9-0.7l0.1,0c5-2.8,7.4-3.5,8.2-2.3c0.2,0.3,0.3,0.7,0.2,1
		c-0.3,1.1-1.9,2.1-4.1,3.2c-0.3,0.2-0.6,0.3-0.8,0.5c-0.4,0.2-0.9,0.5-1.5,0.9C32.7,37.2,29.9,38.9,28.2,38.9z"/>
	<path class="st0" d="M30.2,31.8c-0.2,0-0.3-0.1-0.4-0.3c-0.1-0.2,0-0.5,0.2-0.7c1.2-0.7,2.3-0.6,2.8-0.5c2-1,5.2-2.4,6.1-1.4
		c0.4,0.4,0.4,0.8,0.4,1.1c-0.1,0.6-0.6,0.9-0.7,0.9c-0.2,0.1-0.5,0-0.7-0.2c-0.1-0.2,0-0.5,0.2-0.7c0.1,0,0.2-0.1,0.2-0.2
		c0,0,0-0.1-0.1-0.2c-0.4-0.3-2.8,0.5-5.1,1.7c-0.1,0.1-0.2,0.1-0.3,0c0,0-1.1-0.2-2.2,0.4C30.3,31.8,30.2,31.8,30.2,31.8z"/>
	<path class="st0" d="M28.4,31.1c-0.2,0-0.3-0.1-0.4-0.2c-0.2-0.2-0.1-0.5,0.1-0.7c1.5-1.1,3.1-1.3,3.6-1.3c0.9-0.5,3.4-1.9,4.4-0.8
		c0.4,0.4,0.4,0.8,0.4,1.1c-0.1,0.6-0.6,0.9-0.7,0.9c-0.2,0.1-0.5,0-0.7-0.2c-0.1-0.2,0-0.5,0.2-0.7c0.1,0,0.2-0.1,0.2-0.2
		c0,0,0-0.1-0.1-0.2c-0.3-0.3-1.8,0.2-3.2,1.1c-0.1,0-0.2,0.1-0.3,0.1c0,0-1.7,0.1-3.1,1.1C28.6,31.1,28.5,31.1,28.4,31.1z"/>
	<path class="st0" d="M33.8,18c-0.1,0-0.3-0.1-0.4-0.2c-0.2-0.2-0.2-0.5,0-0.7c0.7-0.6,1.1-1.5,1.1-2.4c0-1.8-1.5-3.3-3.3-3.3
		c-0.9,0-1.8,0.4-2.4,1.1c-0.2,0.2-0.5,0.2-0.7,0c-0.2-0.2-0.2-0.5,0-0.7c0.8-0.9,2-1.4,3.2-1.4c2.4,0,4.3,1.9,4.3,4.3
		c0,1.2-0.5,2.4-1.4,3.2C34.1,17.9,34,18,33.8,18z"/>
	<path class="st0" d="M12.4,38.1c-1.1,0-1.6-1.9-1.6-3.8s0.5-3.8,1.6-3.8c0.3,0,0.5,0.2,0.5,0.5s-0.2,0.5-0.5,0.5
		c-0.1,0.1-0.6,1-0.6,2.8s0.4,2.7,0.6,2.8c0.3,0,0.5,0.2,0.5,0.5C12.9,37.9,12.6,38.1,12.4,38.1z"/>
	<path class="st0" d="M10.7,37.9c-1.1,0-1.6-1.8-1.6-3.7c0-1.8,0.5-3.7,1.6-3.7c0.3,0,0.5,0.2,0.5,0.5s-0.2,0.5-0.5,0.5
		c-0.1,0.1-0.6,1-0.6,2.7c0,1.7,0.4,2.6,0.6,2.7c0.3,0,0.5,0.2,0.5,0.5S11,37.9,10.7,37.9z"/>
</g>
</svg>
