<?xml version="1.0" encoding="utf-8"?>
<!-- Generator: Adobe Illustrator 21.0.0, SVG Export Plug-In . SVG Version: 6.00 Build 0)  -->
<svg version="1.1" id="Layer_1" xmlns:sketch="http://www.bohemiancoding.com/sketch/ns"
	 xmlns="http://www.w3.org/2000/svg" xmlns:xlink="http://www.w3.org/1999/xlink" x="0px" y="0px" viewBox="0 0 48 48"
	 style="enable-background:new 0 0 48 48;" xml:space="preserve">
<style type="text/css">
	.st0{fill:#FFFFFF;}
	.st1{fill:none;stroke:#D62121;stroke-miterlimit:10;}
	.st2{fill:none;stroke:#D62121;stroke-linecap:round;stroke-linejoin:round;stroke-miterlimit:10;}
	.st3{fill:#D62121;}
	.st4{fill:none;stroke:#D62121;stroke-linecap:round;stroke-linejoin:round;}
	.st5{fill:none;stroke:#D62121;stroke-linecap:round;stroke-linejoin:round;stroke-dasharray:3.2981,3.2981;}
	.st6{fill:none;stroke:#000000;stroke-width:4;stroke-linejoin:round;stroke-miterlimit:10;}
	.st7{fill:none;stroke:#000000;stroke-width:4;stroke-linecap:square;stroke-linejoin:round;stroke-miterlimit:10;}
</style>
<path class="st0" d="M24,0C10.8,0,0,10.8,0,24c0,13.2,10.8,24,24,24s24-10.8,24-24C48,10.8,37.2,0,24,0z M24,46.9
	c-12.7,0-23-10.3-23-23c0-12.7,10.3-23,23-23s23,10.3,23,23C47,36.6,36.7,46.9,24,46.9z"/>
<g>
	<path class="st0" d="M24,42.7C7.2,42.7,7,20.4,7,20.2l0.9-8.3c0-0.2,0.1-0.4,0.3-0.4l4.6-1.7c0.2-0.1,0.3,0,0.5,0.1
		c0.1,0.1,0.2,0.2,0.2,0.4v1.5L18,9.9V8.1c0-0.2,0.1-0.4,0.3-0.5l5.5-2.2c0.1,0,0.3,0,0.4,0l5.5,2.2C29.9,7.7,30,7.8,30,8.1v1.9
		l4.5,1.8v-1.5c0-0.2,0.1-0.3,0.2-0.4c0.1-0.1,0.3-0.1,0.5-0.1l4.6,1.7c0.2,0.1,0.3,0.2,0.3,0.4l0.9,8.2C41,20.4,40.8,42.7,24,42.7z
		 M8.8,12.3L8,20.2c0,0.2,0.2,21.4,16,21.4c15.8,0,16-21.3,16-21.5l-0.8-7.9L35.5,11v1.5c0,0.2-0.1,0.3-0.2,0.4
		C35.1,13,35,13,34.8,12.9l-5.5-2.2c-0.2-0.1-0.3-0.3-0.3-0.5V8.4l-5-2l-5,2v1.9c0,0.2-0.1,0.4-0.3,0.5l-5.5,2.2
		c-0.2,0.1-0.3,0-0.5-0.1c-0.1-0.1-0.2-0.2-0.2-0.4V11L8.8,12.3z"/>
	<path class="st0" d="M24,12.5c-0.3,0-0.5-0.2-0.5-0.5V5.8c0-0.3,0.2-0.5,0.5-0.5s0.5,0.2,0.5,0.5V12C24.5,12.3,24.3,12.5,24,12.5z"
		/>
	<path class="st0" d="M24,42.7c-0.3,0-0.5-0.2-0.5-0.5V35c0-0.3,0.2-0.5,0.5-0.5s0.5,0.2,0.5,0.5v7.1C24.5,42.4,24.3,42.7,24,42.7z"
		/>
	<g>
		<path class="st0" d="M34.6,31.1H13.4c-1.1,0-1.9-0.9-1.9-1.9v-3.8c0-1.1,0.9-1.9,1.9-1.9h21.2c1.1,0,1.9,0.9,1.9,1.9v3.8
			C36.5,30.3,35.6,31.1,34.6,31.1z M13.4,24.5c-0.5,0-0.9,0.4-0.9,0.9v3.8c0,0.5,0.4,0.9,0.9,0.9h21.2c0.5,0,0.9-0.4,0.9-0.9v-3.8
			c0-0.5-0.4-0.9-0.9-0.9H13.4z"/>
		<path class="st0" d="M16.8,35.4h-1.1c-1.1,0-1.9-0.9-1.9-1.9v-3.4h4.9v3.4C18.7,34.6,17.9,35.4,16.8,35.4z M14.8,31.1v2.4
			c0,0.5,0.4,0.9,0.9,0.9h1.1c0.5,0,0.9-0.4,0.9-0.9v-2.4H14.8z"/>
		<path class="st0" d="M32.2,35.4h-1.1c-1.1,0-1.9-0.9-1.9-1.9v-3.4h4.9v3.4C34.1,34.6,33.3,35.4,32.2,35.4z M30.2,31.1v2.4
			c0,0.5,0.4,0.9,0.9,0.9h1.1c0.5,0,0.9-0.4,0.9-0.9v-2.4H30.2z"/>
		<path class="st0" d="M34.1,24.5h-20v-6c0-2.3,1.9-4.2,4.2-4.2h11.6c2.3,0,4.2,1.9,4.2,4.2V24.5z M15.2,23.5h18v-5
			c0-1.8-1.4-3.2-3.2-3.2H18.3c-1.8,0-3.2,1.4-3.2,3.2V23.5z"/>
		<path class="st0" d="M31.2,24h-1c0-1.3-1-2.3-2.3-2.3s-2.3,1-2.3,2.3h-1c0-1.8,1.5-3.3,3.3-3.3C29.8,20.7,31.2,22.2,31.2,24z"/>
		<path class="st0" d="M27.4,27.1h-7c-0.3,0-0.5-0.2-0.5-0.5s0.2-0.5,0.5-0.5h7c0.3,0,0.5,0.2,0.5,0.5S27.7,27.1,27.4,27.1z"/>
		<path class="st0" d="M27.4,28.9h-7c-0.3,0-0.5-0.2-0.5-0.5s0.2-0.5,0.5-0.5h7c0.3,0,0.5,0.2,0.5,0.5S27.7,28.9,27.4,28.9z"/>
		<path class="st0" d="M27.5,17.3h-7.2c-0.3,0-0.5-0.2-0.5-0.5s0.2-0.5,0.5-0.5h7.2c0.3,0,0.5,0.2,0.5,0.5S27.8,17.3,27.5,17.3z"/>
		<circle class="st0" cx="16.3" cy="27.3" r="1.1"/>
		<circle class="st0" cx="31.7" cy="27.3" r="1.1"/>
	</g>
</g>
</svg>
