<?xml version="1.0" encoding="utf-8"?>
<!-- Generator: Adobe Illustrator 21.0.0, SVG Export Plug-In . SVG Version: 6.00 Build 0)  -->
<svg version="1.1" id="Layer_1" xmlns:sketch="http://www.bohemiancoding.com/sketch/ns"
	 xmlns="http://www.w3.org/2000/svg" xmlns:xlink="http://www.w3.org/1999/xlink" x="0px" y="0px" viewBox="0 0 48 48"
	 style="enable-background:new 0 0 48 48;" xml:space="preserve">
<style type="text/css">
	.st0{fill:#FFFFFF;}
	.st1{fill:none;stroke:#D62121;stroke-miterlimit:10;}
	.st2{fill:none;stroke:#D62121;stroke-linecap:round;stroke-linejoin:round;stroke-miterlimit:10;}
	.st3{fill:#D62121;}
	.st4{fill:none;stroke:#D62121;stroke-linecap:round;stroke-linejoin:round;}
	.st5{fill:none;stroke:#D62121;stroke-linecap:round;stroke-linejoin:round;stroke-dasharray:3.2981,3.2981;}
	.st6{fill:none;stroke:#000000;stroke-width:4;stroke-linejoin:round;stroke-miterlimit:10;}
	.st7{fill:none;stroke:#000000;stroke-width:4;stroke-linecap:square;stroke-linejoin:round;stroke-miterlimit:10;}
</style>
<path class="st0" d="M24,0C10.8,0,0,10.8,0,24c0,13.2,10.8,24,24,24s24-10.8,24-24C48,10.8,37.2,0,24,0z M24,46.9
	c-12.7,0-23-10.3-23-23c0-12.7,10.3-23,23-23s23,10.3,23,23C47,36.6,36.7,46.9,24,46.9z"/>
<g>
	<path class="st0" d="M24,37.2c-7.3,0-13.2-5.9-13.2-13.2S16.7,10.8,24,10.8S37.2,16.7,37.2,24S31.3,37.2,24,37.2z M24,11.8
		c-6.7,0-12.2,5.5-12.2,12.2c0,6.7,5.5,12.2,12.2,12.2c6.7,0,12.2-5.5,12.2-12.2C36.2,17.3,30.7,11.8,24,11.8z"/>
	<g>
		<path class="st0" d="M19,23c-0.1,0-0.2,0-0.3-0.1c0,0-2.1-1.9-2.5-2.2c-0.6-0.6-1-1.3-1-2.2c0-1.3,0.9-2.3,2.1-2.3
			c0.7,0,1.3,0.4,1.6,0.7c0.4-0.3,0.9-0.7,1.6-0.7c1.2,0,2.1,1,2.1,2.3c0,0.9-0.3,1.6-1,2.2c-0.3,0.3-2.5,2.2-2.5,2.2
			C19.2,23,19.1,23,19,23z M17.4,17.2c-0.7,0-1.1,0.7-1.1,1.3c0,0.6,0.2,1.1,0.6,1.5c0.2,0.2,1.5,1.3,2.1,1.9
			c0.6-0.5,1.9-1.6,2.1-1.9c0.4-0.4,0.6-0.9,0.6-1.5c0-0.7-0.4-1.3-1.1-1.3c-0.7,0-1.2,0.7-1.2,0.7c-0.2,0.3-0.6,0.3-0.8,0l0,0
			C18.6,17.9,18,17.2,17.4,17.2z"/>
		<path class="st0" d="M29.1,23c-0.1,0-0.2,0-0.3-0.1c0,0-2.1-1.9-2.5-2.2c-0.6-0.6-1-1.3-1-2.2c0-1.3,0.9-2.3,2.1-2.3
			c0.7,0,1.3,0.4,1.6,0.7c0.4-0.3,0.9-0.7,1.6-0.7c1.2,0,2.1,1,2.1,2.3c0,0.9-0.3,1.6-1,2.2c-0.3,0.3-2.5,2.2-2.5,2.2
			C29.3,23,29.2,23,29.1,23z M27.4,17.2c-0.7,0-1.1,0.7-1.1,1.3c0,0.6,0.2,1.1,0.6,1.5c0.2,0.2,1.5,1.3,2.1,1.9
			c0.6-0.5,1.9-1.6,2.1-1.9c0.4-0.4,0.6-0.9,0.6-1.5c0-0.7-0.4-1.3-1.1-1.3c-0.7,0-1.2,0.7-1.2,0.7c-0.1,0.1-0.2,0.2-0.4,0.2
			c0,0,0,0,0,0c-0.2,0-0.3-0.1-0.4-0.2l0,0C28.7,17.9,28.1,17.2,27.4,17.2z"/>
		<path class="st0" d="M23,31.1c-1.3,0-2.5-0.3-3.7-0.8c-0.3-0.1-0.4-0.4-0.2-0.7s0.4-0.4,0.7-0.2c3.9,1.8,8.6,0.1,10.4-3.8
			c0.1-0.3,0.4-0.4,0.7-0.2c0.2,0.1,0.4,0.4,0.2,0.7C29.5,29.2,26.3,31.1,23,31.1z"/>
	</g>
</g>
</svg>
