<?xml version="1.0" encoding="utf-8"?>
<!-- Generator: Adobe Illustrator 21.0.0, SVG Export Plug-In . SVG Version: 6.00 Build 0)  -->
<svg version="1.1" id="Layer_1" xmlns:sketch="http://www.bohemiancoding.com/sketch/ns"
	 xmlns="http://www.w3.org/2000/svg" xmlns:xlink="http://www.w3.org/1999/xlink" x="0px" y="0px" viewBox="0 0 48 48"
	 style="enable-background:new 0 0 48 48;" xml:space="preserve">
<style type="text/css">
	.st0{fill:#FFFFFF;}
	.st1{fill:none;stroke:#D62121;stroke-miterlimit:10;}
	.st2{fill:none;stroke:#D62121;stroke-linecap:round;stroke-linejoin:round;stroke-miterlimit:10;}
	.st3{fill:#D62121;}
	.st4{fill:none;stroke:#D62121;stroke-linecap:round;stroke-linejoin:round;}
	.st5{fill:none;stroke:#D62121;stroke-linecap:round;stroke-linejoin:round;stroke-dasharray:3.2981,3.2981;}
	.st6{fill:none;stroke:#000000;stroke-width:4;stroke-linejoin:round;stroke-miterlimit:10;}
	.st7{fill:none;stroke:#000000;stroke-width:4;stroke-linecap:square;stroke-linejoin:round;stroke-miterlimit:10;}
	.st8{fill:none;stroke:#D62121;stroke-linecap:round;stroke-miterlimit:10;}
</style>
<path class="st0" d="M24,0C10.8,0,0,10.8,0,24c0,13.2,10.8,24,24,24s24-10.8,24-24C48,10.8,37.2,0,24,0z M24,46.9
	c-12.7,0-23-10.3-23-23c0-12.7,10.3-23,23-23s23,10.3,23,23C47,36.6,36.7,46.9,24,46.9z"/>
<g>
	<path class="st0" d="M31.4,38.5H16.6c-1.1,0-1.9-0.9-1.9-1.9v-2.1c0-1.1,0.9-1.9,1.9-1.9h14.8c1.1,0,1.9,0.9,1.9,1.9v2.1
		C33.3,37.6,32.5,38.5,31.4,38.5z M16.6,33.6c-0.5,0-0.9,0.4-0.9,0.9v2.1c0,0.5,0.4,0.9,0.9,0.9h14.8c0.5,0,0.9-0.4,0.9-0.9v-2.1
		c0-0.5-0.4-0.9-0.9-0.9H16.6z"/>
	<path class="st0" d="M18.3,41.7L18.3,41.7c-1.1,0-2-0.9-2-1.9v-2.2h3.9v2.2C20.3,40.8,19.4,41.7,18.3,41.7z M17.4,38.5v1.2
		c0,0.5,0.4,0.9,0.9,0.9h0.1c0.5,0,0.9-0.4,0.9-0.9v-1.2H17.4z"/>
	<path class="st0" d="M29.7,41.7L29.7,41.7c-1.1,0-2-0.9-2-1.9v-2.2h3.9v2.2C31.6,40.8,30.7,41.7,29.7,41.7z M28.7,38.5v1.2
		c0,0.5,0.4,0.9,0.9,0.9h0.1c0.5,0,0.9-0.4,0.9-0.9v-1.2H28.7z"/>
	<path class="st0" d="M31.6,33.6h-15v-3.9c0-2.2,1.8-3.9,3.9-3.9h7c2.2,0,4.1,1.7,4.1,3.9V33.6z M17.6,32.6h13v-2.9
		c0-1.6-1.4-2.9-3.1-2.9h-7c-1.6,0-2.9,1.3-2.9,2.9V32.6z"/>
	<path class="st0" d="M29.5,33.1h-1c0-0.9-0.7-1.5-1.5-1.5s-1.5,0.7-1.5,1.5h-1c0-1.4,1.1-2.5,2.5-2.5S29.5,31.7,29.5,33.1z"/>
	<path class="st0" d="M26.5,35.5h-5.2c-0.3,0-0.5-0.2-0.5-0.5s0.2-0.5,0.5-0.5h5.2c0.3,0,0.5,0.2,0.5,0.5S26.8,35.5,26.5,35.5z"/>
	<path class="st0" d="M26.5,36.9h-5.2c-0.3,0-0.5-0.2-0.5-0.5s0.2-0.5,0.5-0.5h5.2c0.3,0,0.5,0.2,0.5,0.5S26.8,36.9,26.5,36.9z"/>
	<path class="st0" d="M26.5,28.3h-5.2c-0.3,0-0.5-0.2-0.5-0.5s0.2-0.5,0.5-0.5h5.2c0.3,0,0.5,0.2,0.5,0.5S26.8,28.3,26.5,28.3z"/>
	<circle class="st0" cx="18.3" cy="35.6" r="0.8"/>
	<circle class="st0" cx="14.4" cy="18.3" r="0.8"/>
	<circle class="st0" cx="33.6" cy="18.3" r="0.8"/>
	<circle class="st0" cx="12.6" cy="21" r="0.8"/>
	<circle class="st0" cx="35.4" cy="21" r="0.8"/>
	<circle class="st0" cx="13.6" cy="24.1" r="0.8"/>
	<circle class="st0" cx="34.5" cy="24.1" r="0.8"/>
	<circle class="st0" cx="29.6" cy="35.6" r="0.8"/>
</g>
<g>
	<g>
		<path class="st0" d="M31.4,38.5H16.6c-1.1,0-1.9-0.9-1.9-1.9v-2.1c0-1.1,0.9-1.9,1.9-1.9h14.9c1.1,0,1.9,0.9,1.9,1.9v2.1
			C33.3,37.6,32.5,38.5,31.4,38.5z M16.6,33.6c-0.5,0-0.9,0.4-0.9,0.9v2.1c0,0.5,0.4,0.9,0.9,0.9h14.9c0.5,0,0.9-0.4,0.9-0.9v-2.1
			c0-0.5-0.4-0.9-0.9-0.9H16.6z"/>
		<path class="st0" d="M18.3,41.7L18.3,41.7c-1.1,0-2-0.9-2-1.9v-2.2h3.9v2.2C20.3,40.8,19.4,41.7,18.3,41.7z M17.4,38.5v1.2
			c0,0.5,0.4,0.9,0.9,0.9h0.1c0.5,0,0.9-0.4,0.9-0.9v-1.2H17.4z"/>
		<path class="st0" d="M29.7,41.7L29.7,41.7c-1.1,0-2-0.9-2-1.9v-2.2h3.9v2.2C31.6,40.8,30.7,41.7,29.7,41.7z M28.7,38.5v1.2
			c0,0.5,0.4,0.9,0.9,0.9h0.1c0.5,0,0.9-0.4,0.9-0.9v-1.2H28.7z"/>
		<path class="st0" d="M31.6,33.6h-15v-3.9c0-2.2,1.8-3.9,3.9-3.9h7c2.2,0,4.1,1.7,4.1,3.9V33.6z M17.6,32.6h13v-2.9
			c0-1.6-1.4-2.9-3.1-2.9h-7c-1.6,0-2.9,1.3-2.9,2.9V32.6z"/>
		<path class="st0" d="M29.5,33.1h-1c0-0.9-0.7-1.5-1.5-1.5s-1.5,0.7-1.5,1.5h-1c0-1.4,1.1-2.5,2.5-2.5
			C28.3,30.6,29.5,31.7,29.5,33.1z"/>
		<path class="st0" d="M26.5,35.5h-5.2c-0.3,0-0.5-0.2-0.5-0.5s0.2-0.5,0.5-0.5h5.2c0.3,0,0.5,0.2,0.5,0.5S26.8,35.5,26.5,35.5z"/>
		<path class="st0" d="M26.5,36.9h-5.2c-0.3,0-0.5-0.2-0.5-0.5s0.2-0.5,0.5-0.5h5.2c0.3,0,0.5,0.2,0.5,0.5S26.8,36.9,26.5,36.9z"/>
		<path class="st0" d="M26.5,28.3h-5.2c-0.3,0-0.5-0.2-0.5-0.5s0.2-0.5,0.5-0.5h5.2c0.3,0,0.5,0.2,0.5,0.5S26.8,28.3,26.5,28.3z"/>
		<circle class="st0" cx="18.3" cy="35.6" r="0.8"/>
		<circle class="st0" cx="29.6" cy="35.6" r="0.8"/>
	</g>
	<g>
		<path class="st0" d="M29.5,12.3h-3.8c-0.3,0-0.5-0.2-0.5-0.5c0-0.6-0.5-1.2-1.2-1.2s-1.2,0.5-1.2,1.2c0,0.3-0.2,0.5-0.5,0.5h-3.8
			c-0.3,0-0.5-0.2-0.5-0.5c0-3.3,2.7-6,6-6c3.3,0,6,2.7,6,6C30,12.1,29.7,12.3,29.5,12.3z M26.1,11.3h2.8c-0.3-2.5-2.4-4.5-4.9-4.5
			c-2.6,0-4.7,2-4.9,4.5h2.8c0.2-1,1.1-1.7,2.1-1.7S25.9,10.4,26.1,11.3z"/>
		<path class="st0" d="M24,23.6L24,23.6c-0.2,0-0.3-0.1-0.4-0.2C23.4,23,18,14.9,18,11.8c0-0.3,0.2-0.5,0.5-0.5h3.8
			c0.3,0,0.5,0.2,0.5,0.5c0,0.6,0.5,1.2,1.2,1.2s1.2-0.5,1.2-1.2c0-0.3,0.2-0.5,0.5-0.5h3.8c0.3,0,0.5,0.2,0.5,0.5
			c0,3.1-5.3,11.2-5.5,11.6C24.3,23.5,24.2,23.6,24,23.6z M19.1,12.3c0.4,2.4,3.3,7.4,4.9,9.9c1.6-2.5,4.5-7.5,4.9-9.9h-2.8
			C25.9,13.3,25,14,24,14s-1.9-0.7-2.1-1.7H19.1z"/>
	</g>
</g>
<g>
	<g>
		<path class="st0" d="M35.3,28.7h-2.3c-0.3,0-0.5-0.2-0.5-0.5s0.2-0.5,0.5-0.5h2.3c0.3,0,0.5,0.2,0.5,0.5S35.5,28.7,35.3,28.7z"/>
		<path class="st0" d="M38.1,37.4h-3.6c-0.3,0-0.5-0.2-0.5-0.5s0.2-0.5,0.5-0.5h3.6c0.2,0,0.4-0.2,0.4-0.4v-2.4
			c0-0.2-0.2-0.4-0.4-0.4h-2.7c-0.3,0-0.5-0.2-0.5-0.5s0.2-0.5,0.5-0.5h2.7c0.8,0,1.4,0.6,1.4,1.4v2.4
			C39.5,36.8,38.8,37.4,38.1,37.4z"/>
		<path class="st0" d="M36.3,40.1c-0.9,0-1.7-0.8-1.7-1.7v-1.9H38v1.9C38,39.3,37.2,40.1,36.3,40.1z M35.6,37.4v0.9
			c0,0.4,0.3,0.7,0.7,0.7c0.4,0,0.7-0.3,0.7-0.7v-0.9H35.6z"/>
		<path class="st0" d="M37.5,33.3h-3.2c-0.3,0-0.5-0.2-0.5-0.5s0.2-0.5,0.5-0.5H37v-1.7c0,0,0-0.1,0-0.1c0-0.4,0-1.6-0.7-2.4
			c-0.5-0.5-1.2-0.7-2.1-0.7h-1.9c-0.3,0-0.5-0.2-0.5-0.5s0.2-0.5,0.5-0.5h1.9c1.2,0,2.2,0.3,2.8,1c1,1.1,1,2.6,1,3.1l0,2.3
			C38,33.1,37.8,33.3,37.5,33.3z"/>
		<circle class="st0" cx="36.3" cy="34.9" r="0.7"/>
	</g>
	<g>
		<path class="st0" d="M15.1,28.7h-2.3c-0.3,0-0.5-0.2-0.5-0.5s0.2-0.5,0.5-0.5h2.3c0.3,0,0.5,0.2,0.5,0.5S15.3,28.7,15.1,28.7z"/>
		<path class="st0" d="M13.5,37.4H9.9c-0.8,0-1.4-0.6-1.4-1.4v-2.4c0-0.8,0.6-1.4,1.4-1.4h2.7c0.3,0,0.5,0.2,0.5,0.5
			s-0.2,0.5-0.5,0.5H9.9c-0.2,0-0.4,0.2-0.4,0.4v2.4c0,0.2,0.2,0.4,0.4,0.4h3.6c0.3,0,0.5,0.2,0.5,0.5S13.8,37.4,13.5,37.4z"/>
		<path class="st0" d="M11.7,40.1c-0.9,0-1.7-0.8-1.7-1.7v-1.9h3.4v1.9C13.4,39.3,12.7,40.1,11.7,40.1z M11,37.4v0.9
			c0,0.4,0.3,0.7,0.7,0.7s0.7-0.3,0.7-0.7v-0.9H11z"/>
		<path class="st0" d="M13.7,33.3h-3.2c-0.3,0-0.5-0.2-0.5-0.5v-2.2c0-0.6,0-2.2,1-3.2c0.7-0.7,1.6-1,2.8-1h1.9
			c0.3,0,0.5,0.2,0.5,0.5s-0.2,0.5-0.5,0.5h-1.9c-0.9,0-1.6,0.2-2.1,0.7c-0.8,0.8-0.7,2-0.7,2.4c0,0,0,0.1,0,0.1v1.7h2.7
			c0.3,0,0.5,0.2,0.5,0.5S14,33.3,13.7,33.3z"/>
		<circle class="st0" cx="11.7" cy="34.9" r="0.7"/>
	</g>
</g>
</svg>
